<svg width="740" height="740" viewBox="0 0 740 740" fill="none" xmlns="http://www.w3.org/2000/svg">
<path fill-rule="evenodd" clip-rule="evenodd" d="M374.096 739.978C377.136 739.945 380.167 739.875 383.189 739.769C392.738 597.366 421.55 385.952 546.152 317.359C572.209 271.519 567.515 210.735 509.651 113.7C510.472 114.891 511.326 116.125 512.208 117.4L512.228 117.43C538.503 155.411 589.946 229.776 580.157 303.061C597.531 297.818 616.446 295 637.046 295C658 380.487 654 380.487 647.512 380.487C520.181 374.639 428.434 438.627 388.03 739.568C584.001 730.165 740 568.3 740 370C740 165.655 574.345 0 370 0C165.655 0 0 165.655 0 370C0 568.362 156.097 730.267 352.154 739.577C311.34 443.779 219.969 380.681 93.488 386.491C93.7645 381.839 93.9579 378.146 94.1225 375.003C95.0528 357.236 95.061 357.081 103.954 301.004C125.2 301.004 144.655 304.001 162.474 309.565C156.954 238.75 205.815 168.118 231.194 131.432C232.083 130.146 232.943 128.902 233.772 127.702C179.716 218.35 172.061 277.363 192.531 322.11C317.344 388.415 347.379 596.625 357.401 739.79C359.264 739.852 361.13 739.9 362.999 739.935C358.251 552.833 343.439 325.786 327 235.92C329.603 240.493 333.875 235.518 340.366 227.959C346.02 221.373 353.358 212.827 362.742 206.926C383.436 154.625 390.65 79.2468 383.5 23.9987C396.171 121.911 408.16 179.83 417.094 211.629C425.077 217.237 433.698 225.144 443 235.92C442.183 241.776 440.101 253.003 437.109 269.132L437.109 269.135C423.688 341.497 391.967 512.525 374.096 739.978ZM233.772 127.702L263.422 71.0017C263.002 71.8688 262.544 72.8232 262.04 73.8715L262.035 73.8831C257.612 83.091 249.713 99.5382 233.772 127.702ZM509.651 113.7C493.709 85.5365 485.81 69.0892 481.387 59.8813C480.882 58.8285 480.422 57.8702 480 57L509.651 113.7Z" fill="url(#paint0_radial_1446_1072)"/>
<defs>
<radialGradient id="paint0_radial_1446_1072" cx="0" cy="0" r="1" gradientUnits="userSpaceOnUse" gradientTransform="translate(145.96 650.665) rotate(-47.2882) scale(2619.82 4620.49)">
<stop stop-color="#30CCCC"/>
<stop offset="0.380208" stop-color="#70FFBA"/>
<stop offset="1" stop-color="#350961"/>
</radialGradient>
</defs>
</svg>
