<svg width="595" height="595" viewBox="0 0 595 595" fill="none" xmlns="http://www.w3.org/2000/svg">
<path d="M297.5 595C461.805 595 595 461.805 595 297.5C595 133.195 461.805 0 297.5 0C133.195 0 0 133.195 0 297.5C0 329.467 5.04187 360.256 14.3738 389.116C168.999 388.928 331.947 308.792 434.564 144.14C401.637 224.713 283.466 414.041 40.5822 447.594C48.3338 460.834 57.0797 473.421 66.7172 485.253C305.259 425.582 423.71 240.534 467.268 93.6065C434.775 279.344 318.204 452.44 117.146 534.118C134.151 547.099 148.547 556.186 168.152 565.303C303.349 478.672 428.441 332.966 473.476 132.614C453.033 334.88 348.769 494.161 238.246 589.099C257.395 592.969 277.21 595 297.5 595Z" fill="url(#paint0_radial_822_2902)"/>
<defs>
<radialGradient id="paint0_radial_822_2902" cx="0" cy="0" r="1" gradientUnits="userSpaceOnUse" gradientTransform="translate(127.041 551.983) rotate(-47.605) scale(2095.29 3691.9)">
<stop stop-color="#30CCCC"/>
<stop offset="0.380208" stop-color="#70FFBA"/>
</radialGradient>
</defs>
</svg>
