<svg width="1384" height="1385" viewBox="0 0 1384 1385" fill="none" xmlns="http://www.w3.org/2000/svg">
<path fill-rule="evenodd" clip-rule="evenodd" d="M692 0C309.819 0 0 310.043 0 692.5C0 1074.96 309.819 1385 692 1385C1074.18 1385 1384 1074.96 1384 692.5C1384 310.043 1074.18 0 692 0ZM1106.31 1045.65L768.122 953.13L768.721 959.513C768.758 959.831 768.721 960.168 768.609 960.486L690.953 1250.6C690.167 1252.92 686.688 1252.92 685.903 1250.6L608.247 960.486C608.135 960.168 608.097 959.85 608.135 959.513L608.546 955.133L277.649 1045.67C275.255 1046.32 272.899 1044.62 273.534 1042.69L466.626 459.645C467.3 457.624 464.7 455.902 462.269 456.725L418.69 471.774C415.885 472.747 413.135 470.333 414.65 468.255L584.924 234.67C586.701 232.218 591.47 233.622 590.797 236.373L422.954 920.975C422.487 922.865 424.825 924.438 427.144 923.801L616.458 870.945L685.772 134.948C686.052 131.915 690.766 131.915 691.046 134.948L760.173 868.905L956.781 923.801C959.101 924.456 961.42 922.865 960.971 920.975L793.128 236.373C792.455 233.603 797.224 232.218 799.001 234.67L969.275 468.255C970.79 470.351 968.041 472.747 965.235 471.774L921.657 456.725C919.225 455.883 916.644 457.624 917.299 459.645L1110.39 1042.69C1111.03 1044.62 1108.67 1046.32 1106.28 1045.67L1106.31 1045.65Z" fill="url(#paint0_linear_21_107)"/>
<defs>
<linearGradient id="paint0_linear_21_107" x1="1384.04" y1="8.25573e-05" x2="-0.992489" y2="1384.04" gradientUnits="userSpaceOnUse">
<stop stop-color="#5DEFC0"/>
<stop offset="1" stop-color="#50CECD"/>
</linearGradient>
</defs>
</svg>
